<svg width="200" height="200" viewBox="0 0 200 200" fill="none" xmlns="http://www.w3.org/2000/svg">
<mask id="path-1-inside-1_6_26" fill="white">
<path d="M200 100C200 121.118 193.314 141.694 180.902 158.779C168.489 175.863 150.986 188.58 130.902 195.106C110.817 201.631 89.1826 201.631 69.0983 195.106C49.014 188.58 31.5111 175.863 19.0983 158.779C6.68549 141.694 -1.84619e-06 121.118 0 100C1.84619e-06 78.8821 6.6855 58.3062 19.0983 41.2215C31.5111 24.1367 49.014 11.4201 69.0983 4.89434C89.1827 -1.63145 110.817 -1.63145 130.902 4.89435L124.721 23.9155C108.654 18.6948 91.3461 18.6948 75.2786 23.9155C59.2112 29.1361 45.2089 39.3094 35.2786 52.9772C25.3484 66.645 20 83.1057 20 100C20 116.894 25.3484 133.355 35.2786 147.023C45.2089 160.691 59.2112 170.864 75.2786 176.085C91.3461 181.305 108.654 181.305 124.721 176.085C140.789 170.864 154.791 160.691 164.721 147.023C174.652 133.355 180 116.894 180 100H200Z"/>
</mask>
<path d="M200 100C200 121.118 193.314 141.694 180.902 158.779C168.489 175.863 150.986 188.58 130.902 195.106C110.817 201.631 89.1826 201.631 69.0983 195.106C49.014 188.58 31.5111 175.863 19.0983 158.779C6.68549 141.694 -1.84619e-06 121.118 0 100C1.84619e-06 78.8821 6.6855 58.3062 19.0983 41.2215C31.5111 24.1367 49.014 11.4201 69.0983 4.89434C89.1827 -1.63145 110.817 -1.63145 130.902 4.89435L124.721 23.9155C108.654 18.6948 91.3461 18.6948 75.2786 23.9155C59.2112 29.1361 45.2089 39.3094 35.2786 52.9772C25.3484 66.645 20 83.1057 20 100C20 116.894 25.3484 133.355 35.2786 147.023C45.2089 160.691 59.2112 170.864 75.2786 176.085C91.3461 181.305 108.654 181.305 124.721 176.085C140.789 170.864 154.791 160.691 164.721 147.023C174.652 133.355 180 116.894 180 100H200Z" stroke="#00FF0A" stroke-width="20" mask="url(#path-1-inside-1_6_26)"/>
</svg>
